<svg width="10000" height="7525" viewBox="0 0 10000 7525" fill="none" xmlns="http://www.w3.org/2000/svg">
<path d="M7248.47 2496.76C7333.35 2507.51 7409.39 2530.29 7479.46 2560C7573.91 2601.19 7741.33 2691.59 7932.41 2872.75C8005.91 2942.55 8103.44 2981.01 8204.21 2981.01H8425.63L8424 2979H8425.63C8425.63 2979 8103.25 2255.09 6893.05 2064.81C6460.15 1996.83 6031.4 1988.45 5659.36 2005.4C4477.15 975.289 2965.7 1501.64 1585.37 2004.3C1576.52 2168.15 1585.73 2361.34 1618.06 2547.42C1661.58 2797.84 1879.75 2978.82 2131.51 2978.82C2076.24 1929.58 3497.03 1929.94 3483.12 2978.82C3540.37 2904.83 3563.85 2589.71 3483.12 2473.06C4358.86 2191.66 5114.13 3079.06 5848.09 2420.03C5812.33 2443.17 5774.41 2463.22 5734.67 2480.35C5450.77 2603.38 5072.23 2581.69 4684.84 2492.75C3850.83 2301.92 2975.27 1800.18 2909.17 1761.9C2906.65 1760.26 2905.2 1759.53 2905.2 1759.53C3443.57 1420.72 4802.41 1480.68 5381.78 2023.07C4861.11 2066.09 4505.69 2148.83 4505.69 2148.83C5918.71 2068.27 6465.75 2218.27 6465.75 2218.27C6465.75 2218.27 6232.77 2663.52 5770.61 2833.02C5740.09 2842.49 5710.84 2851.79 5684.11 2860.72C5511.81 2907.56 5310.98 2914.67 5081.8 2850.88C5181.49 2907.38 5364.8 2936.17 5565.99 2934.17C5582.07 2935.44 5609.52 2934.72 5643.83 2931.98C5663.88 2930.89 5683.93 2929.61 5704.15 2928.15C6085.22 2907.74 6288.22 2978.82 6288.22 2978.82V2978.46C6498.98 2640.74 6873.91 2452.29 7248.83 2496.39L7248.47 2496.76Z" fill="url(#paint0_linear_14_73)"/>
<path d="M4985.99 6615.55L5073.68 6378.02L5310.62 6290.12L5073.68 6202.41L4985.99 5964.88L4898.49 6202.41L4661.55 6290.12L4898.49 6378.02L4985.99 6615.55Z" fill="url(#paint1_linear_14_73)"/>
<path d="M4000.65 6039.6L3839.95 6099.03L4000.65 6158.65L4060.12 6319.74L4119.6 6158.65L4280.29 6099.03L4119.6 6039.6L4060.12 5878.51L4000.65 6039.6Z" fill="url(#paint2_linear_14_73)"/>
<path d="M5912.05 6319.74L5971.52 6158.65L6132.03 6099.03L5971.52 6039.6L5912.05 5878.51L5852.57 6039.6L5691.87 6099.03L5852.57 6158.65L5912.05 6319.74Z" fill="url(#paint3_linear_14_73)"/>
<path d="M828.456 3702.95V3652.12C828.456 3445.17 689.681 3326.69 447.588 3326.69H427.572C185.288 3326.69 40.6031 3455.29 40.6031 3670.84V3858.11C40.6031 4083.41 178.044 4207.43 427.572 4207.43H447.588C695.591 4207.43 832.078 4089.52 832.078 3875.69V3839.96H571.303V3875.69C571.303 3943.15 530.319 3976.02 446.253 3976.02H426.238C339.694 3976.02 301.188 3939.71 301.188 3858.11V3670.84C301.188 3594.98 341.6 3558.1 424.903 3558.1H444.919C527.269 3558.1 566.156 3588.1 567.491 3652.12V3702.95H828.456Z" fill="white"/>
<path d="M1667.21 3646V3601.1C1667.21 3434.66 1559.31 3339.3 1371.17 3339.3H915.572V4195.2H1173.87V3912.96H1301.4L1429.69 4195.2H1705.9L1557.6 3865.95C1629.27 3820.47 1667.02 3744.6 1667.02 3646.19L1667.21 3646ZM1411.39 3634.73C1411.39 3693.77 1363.54 3702.56 1334.95 3702.56H1173.87V3546.83H1334.95C1383.56 3546.83 1411.39 3571.09 1411.39 3613.52V3634.73Z" fill="white"/>
<path d="M2272.25 3339.3L2123.94 3598.99H2082.77L1933.32 3339.3H1656.72L1972.97 3864.8V4195H2231.27V3864.61L2532.26 3339.3H2272.25Z" fill="white"/>
<path d="M3282.56 3953.28V3940.85C3282.56 3802.7 3194.88 3725.5 2979.66 3674.28C2810 3638.55 2782.94 3622.12 2782.94 3587.53V3573.77C2782.94 3551.22 2816.68 3528.29 2891.78 3528.29H2907.99C2976.42 3528.29 3015.5 3552.56 3015.5 3594.98V3637.02H3269.98V3594.98C3269.98 3427.2 3135.02 3326.88 2909.13 3326.88H2889.11C2658.27 3326.88 2525.78 3419.56 2525.78 3581.22V3601.29C2525.78 3736.58 2613.09 3814.93 2808.67 3855.44C2991.86 3894.99 3026.55 3918.31 3026.55 3947.35V3956.14C3026.55 3986.91 2982.52 4005.25 2908.94 4005.25H2892.74C2804.29 4005.25 2766.54 3980.03 2766.54 3921.17V3882.95H2512.06V3920.03C2512.06 4103.09 2649.88 4208 2890.26 4208H2910.27C3143.22 4208 3282.37 4112.84 3282.37 3953.66L3282.56 3953.28Z" fill="white"/>
<path d="M3320.69 3558.1H3581.08V4195H3839.38V3558.1H4099.77V3339.3H3320.69V3558.1Z" fill="white"/>
<path d="M4267.52 4195L4312.32 4045.19H4624.56L4669.36 4195H4920.99L4662.31 3339.11H4286.97L4028.29 4195H4267.52ZM4453.19 3579.31H4483.88L4559.18 3831.17H4378.09L4453.38 3579.31H4453.19Z" fill="white"/>
<path d="M5610.1 3976.21H5236.47V3339.3H4978.17V4195H5610.1V3976.21Z" fill="white"/>
<path d="M6675.31 3702.95V3652.12C6675.31 3445.17 6536.53 3326.69 6294.63 3326.69H6274.61C6032.33 3326.69 5887.65 3455.29 5887.65 3670.84V3858.11C5887.65 4083.41 6025.09 4207.43 6274.61 4207.43H6294.63C6542.63 4207.43 6679.12 4089.52 6679.12 3875.69V3839.96H6418.35V3875.69C6418.35 3943.15 6377.55 3976.02 6293.3 3976.02H6273.28C6186.74 3976.02 6148.23 3939.71 6148.23 3858.11V3670.84C6148.23 3594.98 6188.64 3558.1 6271.95 3558.1H6291.96C6374.31 3558.1 6413.2 3588.1 6414.53 3652.12V3702.95H6675.31Z" fill="white"/>
<path d="M7394.73 3976.21H7020.91V3339.3H6762.61V4195H7394.73V3976.21Z" fill="white"/>
<path d="M8127.68 3978.69H7711.55V3861.55H8066.49V3655.17H7711.55V3555.62H8121.39V3339.3H7453.25V4195H8127.68V3978.69Z" fill="white"/>
<path d="M8816.6 4195H9068.22L8809.55 3339.11H8434.21L8175.53 4195H8414.76L8459.56 4045.19H8771.8L8816.6 4195ZM8525.13 3831.17L8600.43 3579.31H8631.12L8706.42 3831.17H8525.13Z" fill="white"/>
<path d="M9714.82 3836.33L9442.23 3344.08L9439.56 3339.3H9125.41V4195H9358.74V3697.98H9371.13L9645.06 4195H9959.21V3339.3H9725.88V3836.33H9714.82Z" fill="white"/>
<path d="M2291.12 4960.13V4812.8C2291.12 4569.35 2166.07 4456.03 1897.86 4456.03H1507.08V5311.93H1897.86C2162.45 5311.93 2291.12 5196.89 2291.12 4960.13ZM1762.9 4675.02H1897.86C1996.99 4675.02 2030.35 4709.8 2030.35 4812.8V4960.13C2030.35 5059.5 1996.99 5092.94 1897.86 5092.94H1762.9V4675.02Z" fill="white"/>
<path d="M3052.67 5095.42H2636.54V4978.28H2991.67V4771.91H2636.54V4672.35H3046.38V4456.03H2378.24V5311.74H3052.67V5095.42Z" fill="white"/>
<path d="M3619.21 5311.74V4674.83H3879.6V4456.03H3100.52V4674.83H3360.91V5311.74H3619.21Z" fill="white"/>
<path d="M4449.19 5311.74H4700.81L4442.14 4455.84H4066.79L3808.12 5311.74H4047.35L4092.15 5161.92H4404.39L4449.19 5311.74ZM4157.72 4947.9L4233.02 4696.04H4263.71L4339.01 4947.9H4157.72Z" fill="white"/>
<path d="M5335.41 4674.83V4456.03H4749.61V4674.83H4912.79V5092.94H4749.61V5311.74H5335.41V5092.94H5172.23V4674.83H5335.41Z" fill="white"/>
<path d="M6054.06 5092.94H5680.44V4456.03H5422.14V5311.74H6054.06V5092.94Z" fill="white"/>
<path d="M6689.99 4674.83V4456.03H6104.2V4674.83H6267.37V5092.94H6104.2V5311.74H6689.99V5092.94H6526.81V4674.83H6689.99Z" fill="white"/>
<path d="M7010.05 4814.71H7022.25L7296.36 5311.74H7610.51V4456.03H7377V4953.06H7366.13L7093.54 4460.81L7090.68 4456.03H6776.53V5311.74H7010.05V4814.71Z" fill="white"/>
<path d="M8492.92 5311.74V4921.72H8231V4984.97C8231 5059.5 8193.64 5092.75 8109.76 5092.75H8082.31C7998.44 5092.75 7961.07 5055.29 7961.07 4971.21V4790.06C7961.07 4712.48 8000.34 4674.64 8081.17 4674.64H8108.62C8188.49 4674.64 8226.23 4705.41 8227.38 4771.14V4819.49H8488.15V4771.14C8488.15 4565.72 8346.71 4443.04 8109.95 4443.04H8082.5C7843.27 4443.04 7700.49 4572.6 7700.49 4789.87V4971.02C7700.49 5195.36 7819.82 5323.97 8027.79 5323.97H8055.24C8141.98 5323.97 8212.7 5295.88 8260.17 5242.75H8282.47V5311.35H8493.3L8492.92 5311.74Z" fill="white"/>
<path d="M33.1688 3071.78H688.156L294.897 1737.77L4999.9 250.519L9705.1 1737.77L9311.84 3071.78H9966.83L9630.76 2832.91L10000 1580.51L4999.9 0L0 1580.51L369.241 2832.91L33.1688 3071.78Z" fill="url(#paint4_linear_14_73)"/>
<path d="M9966.83 4452.98H9311.84L9705.1 5786.79L4999.9 7274.23L294.897 5786.79L688.156 4452.98H33.1688L369.241 4691.84L0 5944.05L4999.9 7524.75L10000 5944.05L9630.76 4691.84L9966.83 4452.98Z" fill="url(#paint5_linear_14_73)"/>
<defs>
<linearGradient id="paint0_linear_14_73" x1="-2.61162" y1="7534.57" x2="10228.1" y2="5819.18" gradientUnits="userSpaceOnUse">
<stop stop-color="#00E9DB"/>
<stop offset="1" stop-color="#52ACFF"/>
</linearGradient>
<linearGradient id="paint1_linear_14_73" x1="-2.61162" y1="7534.57" x2="10228.1" y2="5819.18" gradientUnits="userSpaceOnUse">
<stop stop-color="#00E9DB"/>
<stop offset="1" stop-color="#52ACFF"/>
</linearGradient>
<linearGradient id="paint2_linear_14_73" x1="-2.61162" y1="7534.57" x2="10228.1" y2="5819.18" gradientUnits="userSpaceOnUse">
<stop stop-color="#00E9DB"/>
<stop offset="1" stop-color="#52ACFF"/>
</linearGradient>
<linearGradient id="paint3_linear_14_73" x1="-2.61162" y1="7534.57" x2="10228.1" y2="5819.18" gradientUnits="userSpaceOnUse">
<stop stop-color="#00E9DB"/>
<stop offset="1" stop-color="#52ACFF"/>
</linearGradient>
<linearGradient id="paint4_linear_14_73" x1="-2.61162" y1="7534.57" x2="10228.1" y2="5819.18" gradientUnits="userSpaceOnUse">
<stop stop-color="#00E9DB"/>
<stop offset="1" stop-color="#52ACFF"/>
</linearGradient>
<linearGradient id="paint5_linear_14_73" x1="-2.61162" y1="7534.57" x2="10228.1" y2="5819.18" gradientUnits="userSpaceOnUse">
<stop stop-color="#00E9DB"/>
<stop offset="1" stop-color="#52ACFF"/>
</linearGradient>
</defs>
</svg>
